<?xml version="1.0" encoding="UTF-8" standalone="no"?>
<!-- Created with Inkscape (http://www.inkscape.org/) -->

<svg
   xmlns:dc="http://purl.org/dc/elements/1.1/"
   xmlns:cc="http://creativecommons.org/ns#"
   xmlns:rdf="http://www.w3.org/1999/02/22-rdf-syntax-ns#"
   xmlns:svg="http://www.w3.org/2000/svg"
   xmlns="http://www.w3.org/2000/svg"
   xmlns:sodipodi="http://sodipodi.sourceforge.net/DTD/sodipodi-0.dtd"
   xmlns:inkscape="http://www.inkscape.org/namespaces/inkscape"
   width="71.487106mm"
   height="83.127426mm"
   viewBox="0 0 253.30077 294.54599"
   id="svg2"
   version="1.1"
   inkscape:version="0.91 r13725"
   sodipodi:docname="alliance_sm.svg"
   inkscape:export-filename="/Users/michael/Desktop/alliance_lg.png"
   inkscape:export-xdpi="152.19318"
   inkscape:export-ydpi="152.19318">
  <defs
     id="defs4" />
  <sodipodi:namedview
     id="base"
     pagecolor="#ffffff"
     bordercolor="#666666"
     borderopacity="1.0"
     inkscape:pageopacity="0.0"
     inkscape:pageshadow="2"
     inkscape:zoom="3.8082116"
     inkscape:cx="126.65039"
     inkscape:cy="147.83843"
     inkscape:document-units="px"
     inkscape:current-layer="layer2"
     showgrid="false"
     inkscape:window-width="2560"
     inkscape:window-height="1328"
     inkscape:window-x="1463"
     inkscape:window-y="3"
     inkscape:window-maximized="0"
     fit-margin-top="0"
     fit-margin-left="0"
     fit-margin-right="0"
     fit-margin-bottom="0"
     inkscape:snap-bbox="true"
     inkscape:snap-object-midpoints="true"
     showguides="true"
     inkscape:guide-bbox="true"
     inkscape:object-paths="true"
     inkscape:snap-intersection-paths="true"
     inkscape:object-nodes="true"
     inkscape:snap-smooth-nodes="true"
     inkscape:snap-midpoints="true"
     inkscape:bbox-paths="true"
     inkscape:bbox-nodes="true"
     inkscape:snap-bbox-edge-midpoints="true"
     inkscape:snap-bbox-midpoints="true"
     inkscape:snap-center="true">
    <sodipodi:guide
       position="258.47304,77.75113"
       orientation="-0.8660254,-0.5"
       id="guide4176"
       inkscape:label=""
       inkscape:color="rgb(0,0,255)" />
    <sodipodi:guide
       position="94.847012,77.751136"
       orientation="0,1"
       id="guide4178" />
    <sodipodi:guide
       position="28.275931,135.68509"
       orientation="0.8660254,-0.5"
       id="guide4180"
       inkscape:label=""
       inkscape:color="rgb(0,0,255)" />
    <sodipodi:guide
       position="120.64648,235.68912"
       orientation="1,0"
       id="guide4160" />
    <sodipodi:guide
       position="132.6543,218.68602"
       orientation="1,0"
       id="guide4162" />
    <sodipodi:guide
       position="0.83203126,203.51402"
       orientation="1,0"
       id="guide4166" />
    <sodipodi:guide
       position="24.138431,101.60545"
       orientation="-23.83846,41.289506"
       id="guide4167" />
    <sodipodi:guide
       position="52.75879,104.2667"
       orientation="-0.5,0.8660254"
       id="guide4169"
       inkscape:label=""
       inkscape:color="rgb(0,0,255)" />
    <sodipodi:guide
       position="235.25262,98.089238"
       orientation="-12.89923,-22.34216"
       id="guide4174" />
    <sodipodi:guide
       position="220.37312,92.816798"
       orientation="-13.79979,-23.9011"
       id="guide4179" />
  </sodipodi:namedview>
  <metadata
     id="metadata7">
    <rdf:RDF>
      <cc:Work
         rdf:about="">
        <dc:format>image/svg+xml</dc:format>
        <dc:type
           rdf:resource="http://purl.org/dc/dcmitype/StillImage" />
        <dc:title />
      </cc:Work>
    </rdf:RDF>
  </metadata>
  <g
     inkscape:label="Layer 1"
     inkscape:groupmode="layer"
     id="layer1"
     transform="translate(-442.54352,-683.01309)"
     style="display:none"
     sodipodi:insensitive="true">
    <path
       inkscape:connector-curvature="0"
       id="path4154"
       d="m 540.83047,846.96327 23.57233,40.52212 0.0173,-61.27622 -51.34911,-29.24091 21.12414,40.11131 -90.16394,52.55624 119.03786,-206.61415 0.84158,104.77362 -45.76772,-2e-4 51.18107,31.51852 51.63812,-31.51852 -46.2247,1.9e-4 8e-5,-104.77319 119.61655,205.95708 -90.08907,-52.08668 22.43669,-40.76812 -51.96413,30.08473 0,61.276 23.89032,-39.65045 89.74145,52.14945 -119.09449,0 -120.02955,-0.0164 z"
       style="opacity:1;fill:#000000;fill-opacity:1;stroke:none;stroke-width:0;stroke-linecap:round;stroke-miterlimit:4;stroke-dasharray:none;stroke-dashoffset:0;stroke-opacity:1"
       sodipodi:nodetypes="ccccccccccccccccccccccc" />
    <g
       style="font-style:normal;font-variant:normal;font-weight:normal;font-stretch:condensed;font-size:90px;line-height:125%;font-family:'Agency FB';-inkscape-font-specification:'Agency FB, Condensed';text-align:start;letter-spacing:0px;word-spacing:0px;writing-mode:lr-tb;text-anchor:start;fill:#000000;fill-opacity:1;stroke:none;stroke-width:1px;stroke-linecap:butt;stroke-linejoin:miter;stroke-opacity:1"
       id="text4156">
      <path
         d="m 472.99762,977.55908 -6.06445,0 -2.417,-15.29297 -13.66699,0 -2.41699,15.29297 -5.88867,0 0,-0.17578 12.26074,-68.77441 6.02051,0 12.17285,68.95019 z m -9.27246,-20.69824 -6.02051,-37.26563 -6.06445,37.26563 12.08496,0 z"
         style="font-style:normal;font-variant:normal;font-weight:normal;font-stretch:condensed;font-size:90px;line-height:125%;font-family:'Agency FB';-inkscape-font-specification:'Agency FB, Condensed';text-align:start;letter-spacing:0px;writing-mode:lr-tb;text-anchor:start;fill:#000000"
         id="path4161"
         inkscape:connector-curvature="0" />
      <path
         d="m 503.27594,977.55908 -21.97266,0 0,-68.77441 6.1084,0 0,63.36914 15.86426,0 0,5.40527 z"
         style="font-style:normal;font-variant:normal;font-weight:normal;font-stretch:condensed;font-size:90px;line-height:125%;font-family:'Agency FB';-inkscape-font-specification:'Agency FB, Condensed';text-align:start;letter-spacing:0px;writing-mode:lr-tb;text-anchor:start;fill:#000000"
         id="path4163"
         inkscape:connector-curvature="0" />
      <path
         d="m 533.51031,977.55908 -21.97265,0 0,-68.77441 6.1084,0 0,63.36914 15.86425,0 0,5.40527 z"
         style="font-style:normal;font-variant:normal;font-weight:normal;font-stretch:condensed;font-size:90px;line-height:125%;font-family:'Agency FB';-inkscape-font-specification:'Agency FB, Condensed';text-align:start;letter-spacing:0px;writing-mode:lr-tb;text-anchor:start;fill:#000000"
         id="path4165"
         inkscape:connector-curvature="0" />
      <path
         d="m 548.23199,977.55908 -6.10839,0 0,-68.77441 6.10839,0 0,68.77441 z"
         style="font-style:normal;font-variant:normal;font-weight:normal;font-stretch:condensed;font-size:90px;line-height:125%;font-family:'Agency FB';-inkscape-font-specification:'Agency FB, Condensed';text-align:start;letter-spacing:0px;writing-mode:lr-tb;text-anchor:start;fill:#000000"
         id="path4167"
         inkscape:connector-curvature="0" />
      <path
         d="m 587.43121,977.55908 -6.06445,0 -2.41699,-15.29297 -13.66699,0 -2.417,15.29297 -5.88867,0 0,-0.17578 12.26074,-68.77441 6.02051,0 12.17285,68.95019 z m -9.27246,-20.69824 -6.02051,-37.26563 -6.06445,37.26563 12.08496,0 z"
         style="font-style:normal;font-variant:normal;font-weight:normal;font-stretch:condensed;font-size:90px;line-height:125%;font-family:'Agency FB';-inkscape-font-specification:'Agency FB, Condensed';text-align:start;letter-spacing:0px;writing-mode:lr-tb;text-anchor:start;fill:#000000"
         id="path4169"
         inkscape:connector-curvature="0" />
      <path
         d="m 624.0816,977.55908 -4.21875,0 -18.36914,-50.58105 0,50.58105 -5.75683,0 0,-68.77441 4.57031,0 18.01758,49.70215 0,-49.70215 5.75683,0 0,68.77441 z"
         style="font-style:normal;font-variant:normal;font-weight:normal;font-stretch:condensed;font-size:90px;line-height:125%;font-family:'Agency FB';-inkscape-font-specification:'Agency FB, Condensed';text-align:start;letter-spacing:0px;writing-mode:lr-tb;text-anchor:start;fill:#000000"
         id="path4171"
         inkscape:connector-curvature="0" />
      <path
         d="m 662.48981,972.68115 q 0,2.15332 -1.40625,3.51563 -1.40625,1.3623 -3.55957,1.3623 l -17.70996,0 q -2.15332,0 -3.51563,-1.3623 -1.3623,-1.36231 -1.3623,-3.51563 l 0,-59.01855 q 0,-2.15332 1.3623,-3.51563 1.36231,-1.3623 3.51563,-1.3623 l 17.70996,0 q 2.15332,0 3.55957,1.3623 1.40625,1.36231 1.40625,3.51563 l 0,15.99609 -6.15235,0 0,-15.46875 -15.29297,0 0,57.96387 15.29297,0 0,-16.91895 6.15235,0 0,17.44629 z"
         style="font-style:normal;font-variant:normal;font-weight:normal;font-stretch:condensed;font-size:90px;line-height:125%;font-family:'Agency FB';-inkscape-font-specification:'Agency FB, Condensed';text-align:start;letter-spacing:0px;writing-mode:lr-tb;text-anchor:start;fill:#000000"
         id="path4173"
         inkscape:connector-curvature="0" />
      <path
         d="m 695.8443,977.55908 -22.58789,0 0,-68.77441 22.32422,0 0,5.40527 -16.21582,0 0,25.66406 14.76562,0 0,5.49317 -14.76562,0 0,26.80664 16.47949,0 0,5.40527 z"
         style="font-style:normal;font-variant:normal;font-weight:normal;font-stretch:condensed;font-size:90px;line-height:125%;font-family:'Agency FB';-inkscape-font-specification:'Agency FB, Condensed';text-align:start;letter-spacing:0px;writing-mode:lr-tb;text-anchor:start;fill:#000000"
         id="path4175"
         inkscape:connector-curvature="0" />
    </g>
    <path
       sodipodi:nodetypes="ccccccccccccccccccccccc"
       style="opacity:1;fill:#000000;fill-opacity:1;stroke:none;stroke-width:0;stroke-linecap:round;stroke-miterlimit:4;stroke-dasharray:none;stroke-dashoffset:0;stroke-opacity:1"
       d="m 540.83047,846.96327 23.57233,40.52212 0.0173,-61.27622 -51.34911,-29.24091 21.12414,40.11131 -90.16394,52.55624 119.03786,-206.61415 0.84158,104.77362 -45.76772,-2e-4 51.18107,31.51852 51.63812,-31.51852 -46.2247,1.9e-4 8e-5,-104.77319 119.61655,205.95708 -90.08907,-52.08668 22.43669,-40.76812 -51.96413,30.08473 0,61.276 23.89032,-39.65045 89.74145,52.14945 -119.09449,0 -120.02955,-0.0164 z"
       id="path4151"
       inkscape:connector-curvature="0" />
  </g>
  <g
     inkscape:groupmode="layer"
     id="layer2"
     inkscape:label="working"
     style="display:inline;opacity:1">
    <path
       style="display:inline;opacity:1;fill:#000000;stroke:none"
       d="M 120.64648,-1.1308594 0.83203125,206.39648 92.681641,153.36719 70.667969,115.24023 l 49.978511,28.90975 0.0508,57.7426 -22.013676,-38.12891 -91.8496096,53.03125 239.6328156,0 -91.84961,-53.03125 -22.01367,38.12891 0.0508,-57.74098 49.97851,-28.91137 -22.01367,38.12696 91.84961,53.02929 -119.81445,-207.5273394 0,106.0605494 44.02539,0 -50.02929,28.82566 -50.029306,-28.82566 44.025386,0 z"
       id="path4157"
       inkscape:connector-curvature="0"
       sodipodi:nodetypes="cccccccccccccccccccccc" />
    <g
       transform="translate(-442.54352,-683.01309)"
       id="g4203"
       style="font-style:normal;font-variant:normal;font-weight:normal;font-stretch:condensed;font-size:90px;line-height:125%;font-family:'Agency FB';-inkscape-font-specification:'Agency FB, Condensed';text-align:start;letter-spacing:0px;word-spacing:0px;writing-mode:lr-tb;text-anchor:start;display:inline;fill:#000000;fill-opacity:1;stroke:none;stroke-width:1px;stroke-linecap:butt;stroke-linejoin:miter;stroke-opacity:1">
      <path
         inkscape:connector-curvature="0"
         id="path4205"
         style="font-style:normal;font-variant:normal;font-weight:normal;font-stretch:condensed;font-size:90px;line-height:125%;font-family:'Agency FB';-inkscape-font-specification:'Agency FB, Condensed';text-align:start;letter-spacing:0px;writing-mode:lr-tb;text-anchor:start;fill:#000000"
         d="m 472.99762,977.55908 -6.06445,0 -2.417,-15.29297 -13.66699,0 -2.41699,15.29297 -5.88867,0 0,-0.17578 12.26074,-68.77441 6.02051,0 12.17285,68.95019 z m -9.27246,-20.69824 -6.02051,-37.26563 -6.06445,37.26563 12.08496,0 z" />
      <path
         inkscape:connector-curvature="0"
         id="path4207"
         style="font-style:normal;font-variant:normal;font-weight:normal;font-stretch:condensed;font-size:90px;line-height:125%;font-family:'Agency FB';-inkscape-font-specification:'Agency FB, Condensed';text-align:start;letter-spacing:0px;writing-mode:lr-tb;text-anchor:start;fill:#000000"
         d="m 503.27594,977.55908 -21.97266,0 0,-68.77441 6.1084,0 0,63.36914 15.86426,0 0,5.40527 z" />
      <path
         inkscape:connector-curvature="0"
         id="path4209"
         style="font-style:normal;font-variant:normal;font-weight:normal;font-stretch:condensed;font-size:90px;line-height:125%;font-family:'Agency FB';-inkscape-font-specification:'Agency FB, Condensed';text-align:start;letter-spacing:0px;writing-mode:lr-tb;text-anchor:start;fill:#000000"
         d="m 533.51031,977.55908 -21.97265,0 0,-68.77441 6.1084,0 0,63.36914 15.86425,0 0,5.40527 z" />
      <path
         inkscape:connector-curvature="0"
         id="path4211"
         style="font-style:normal;font-variant:normal;font-weight:normal;font-stretch:condensed;font-size:90px;line-height:125%;font-family:'Agency FB';-inkscape-font-specification:'Agency FB, Condensed';text-align:start;letter-spacing:0px;writing-mode:lr-tb;text-anchor:start;fill:#000000"
         d="m 548.23199,977.55908 -6.10839,0 0,-68.77441 6.10839,0 0,68.77441 z" />
      <path
         inkscape:connector-curvature="0"
         id="path4213"
         style="font-style:normal;font-variant:normal;font-weight:normal;font-stretch:condensed;font-size:90px;line-height:125%;font-family:'Agency FB';-inkscape-font-specification:'Agency FB, Condensed';text-align:start;letter-spacing:0px;writing-mode:lr-tb;text-anchor:start;fill:#000000"
         d="m 587.43121,977.55908 -6.06445,0 -2.41699,-15.29297 -13.66699,0 -2.417,15.29297 -5.88867,0 0,-0.17578 12.26074,-68.77441 6.02051,0 12.17285,68.95019 z m -9.27246,-20.69824 -6.02051,-37.26563 -6.06445,37.26563 12.08496,0 z" />
      <path
         inkscape:connector-curvature="0"
         id="path4215"
         style="font-style:normal;font-variant:normal;font-weight:normal;font-stretch:condensed;font-size:90px;line-height:125%;font-family:'Agency FB';-inkscape-font-specification:'Agency FB, Condensed';text-align:start;letter-spacing:0px;writing-mode:lr-tb;text-anchor:start;fill:#000000"
         d="m 624.0816,977.55908 -4.21875,0 -18.36914,-50.58105 0,50.58105 -5.75683,0 0,-68.77441 4.57031,0 18.01758,49.70215 0,-49.70215 5.75683,0 0,68.77441 z" />
      <path
         inkscape:connector-curvature="0"
         id="path4217"
         style="font-style:normal;font-variant:normal;font-weight:normal;font-stretch:condensed;font-size:90px;line-height:125%;font-family:'Agency FB';-inkscape-font-specification:'Agency FB, Condensed';text-align:start;letter-spacing:0px;writing-mode:lr-tb;text-anchor:start;fill:#000000"
         d="m 662.48981,972.68115 q 0,2.15332 -1.40625,3.51563 -1.40625,1.3623 -3.55957,1.3623 l -17.70996,0 q -2.15332,0 -3.51563,-1.3623 -1.3623,-1.36231 -1.3623,-3.51563 l 0,-59.01855 q 0,-2.15332 1.3623,-3.51563 1.36231,-1.3623 3.51563,-1.3623 l 17.70996,0 q 2.15332,0 3.55957,1.3623 1.40625,1.36231 1.40625,3.51563 l 0,15.99609 -6.15235,0 0,-15.46875 -15.29297,0 0,57.96387 15.29297,0 0,-16.91895 6.15235,0 0,17.44629 z" />
      <path
         inkscape:connector-curvature="0"
         id="path4219"
         style="font-style:normal;font-variant:normal;font-weight:normal;font-stretch:condensed;font-size:90px;line-height:125%;font-family:'Agency FB';-inkscape-font-specification:'Agency FB, Condensed';text-align:start;letter-spacing:0px;writing-mode:lr-tb;text-anchor:start;fill:#000000"
         d="m 695.8443,977.55908 -22.58789,0 0,-68.77441 22.32422,0 0,5.40527 -16.21582,0 0,25.66406 14.76562,0 0,5.49317 -14.76562,0 0,26.80664 16.47949,0 0,5.40527 z" />
    </g>
  </g>
</svg>
